<svg version="1.1" xmlns="http://www.w3.org/2000/svg" viewBox="0 0 879.166015625 585.007568359375" width="2637.498046875" height="1755.022705078125">
  <!-- svg-source:excalidraw -->
  
  <defs>
    <style class="style-fonts">
      @font-face {
        font-family: "Virgil";
        src: url("https://excalidraw.com/Virgil.woff2");
      }
      @font-face {
        font-family: "Cascadia";
        src: url("https://excalidraw.com/Cascadia.woff2");
      }
    </style>
  </defs>
  <rect x="0" y="0" width="879.166015625" height="585.007568359375" fill="#ffffff"></rect><g stroke-linecap="round" transform="translate(314.291015625 114.418212890625) rotate(0 12.947265625 69.0078125)"><path d="M6.47 0 M6.47 0 C11.86 0.68, 14.59 -0.37, 19.42 0 M6.47 0 C10.54 -0.2, 14.41 0.1, 19.42 0 M19.42 0 C25.34 0.7, 24.17 0.61, 25.89 6.47 M19.42 0 C25.24 -0.23, 26.28 0.03, 25.89 6.47 M25.89 6.47 C26.14 50.75, 25.42 95.89, 25.89 131.54 M25.89 6.47 C27.85 32.88, 27.81 60.65, 25.89 131.54 M25.89 131.54 C26.99 135.81, 21.81 137.46, 19.42 138.02 M25.89 131.54 C26.77 137.05, 25.07 138.74, 19.42 138.02 M19.42 138.02 C15.86 137.13, 12.28 138.15, 6.47 138.02 M19.42 138.02 C14.3 137.79, 9.82 137.7, 6.47 138.02 M6.47 138.02 C3.32 137.14, -1.29 136.39, 0 131.54 M6.47 138.02 C3.44 138.44, 1.7 133.92, 0 131.54 M0 131.54 C0.53 83.54, -0.7 39.15, 0 6.47 M0 131.54 C-1.06 96.47, 0.23 60.76, 0 6.47 M0 6.47 C-1.07 1.54, 0.42 -0.17, 6.47 0 M0 6.47 C-0.44 0.58, 2.13 0.53, 6.47 0" stroke="#000000" stroke-width="1" fill="none"></path></g><g transform="translate(292.748046875 85.847900390625) rotate(0 36 12.5)"><text x="0" y="18" font-family="Virgil, Segoe UI Emoji" font-size="20px" fill="#000000" text-anchor="start" style="white-space: pre;" direction="ltr">thread1</text></g><g stroke-linecap="round" transform="translate(410.287109375 113.495849609375) rotate(0 12.947265625 69.0078125)"><path d="M6.47 0 M6.47 0 C8.85 -0.26, 11.25 0.59, 19.42 0 M6.47 0 C10.99 0.59, 13.76 0.67, 19.42 0 M19.42 0 C23.38 -0.22, 26.23 1.64, 25.89 6.47 M19.42 0 C23.98 -1.13, 26.18 0.66, 25.89 6.47 M25.89 6.47 C26.98 53.37, 27.59 102.23, 25.89 131.54 M25.89 6.47 C24.05 50.56, 24.55 93.91, 25.89 131.54 M25.89 131.54 C25.23 134.12, 22.12 137.65, 19.42 138.02 M25.89 131.54 C24.34 134.03, 22.42 136.02, 19.42 138.02 M19.42 138.02 C15.25 137.04, 9.11 137.39, 6.47 138.02 M19.42 138.02 C16.59 138.43, 13.54 137.74, 6.47 138.02 M6.47 138.02 C2 137.4, -1.06 133.97, 0 131.54 M6.47 138.02 C0.85 136.4, 1.55 134.28, 0 131.54 M0 131.54 C-0.55 96.28, 0.54 57.69, 0 6.47 M0 131.54 C0.71 97.47, 0.53 62.69, 0 6.47 M0 6.47 C1.18 0.93, 2.37 0.45, 6.47 0 M0 6.47 C-1.15 3.65, 1.66 -0.07, 6.47 0" stroke="#000000" stroke-width="1" fill="none"></path></g><g transform="translate(388.744140625 84.925537109375) rotate(0 40.5 12.5)"><text x="0" y="18" font-family="Virgil, Segoe UI Emoji" font-size="20px" fill="#000000" text-anchor="start" style="white-space: pre;" direction="ltr">thread2</text></g><g stroke-linecap="round" transform="translate(252.185546875 69.398193359375) rotate(0 187.85351562500006 101.12890625)"><path d="M32 0 M32 0 C153.75 -2.14, 272.33 -2.48, 343.71 0 M32 0 C100.3 -0.44, 169.03 -0.83, 343.71 0 M343.71 0 C366.3 0.67, 375.47 12.19, 375.71 32 M343.71 0 C364.01 1.39, 376.11 9.74, 375.71 32 M375.71 32 C376.79 61.9, 374.25 91.29, 375.71 170.26 M375.71 32 C374.14 69.47, 373.39 104.11, 375.71 170.26 M375.71 170.26 C375.47 192.46, 363.65 201.54, 343.71 202.26 M375.71 170.26 C375.35 189.85, 363.1 203.21, 343.71 202.26 M343.71 202.26 C259.86 201.74, 177.26 202.52, 32 202.26 M343.71 202.26 C240.55 202.61, 136.81 202.46, 32 202.26 M32 202.26 C10.88 203.78, 1.56 193.57, 0 170.26 M32 202.26 C12.51 200.5, -0.97 190.4, 0 170.26 M0 170.26 C-2.07 140.13, -1.14 112.32, 0 32 M0 170.26 C0.43 120.14, 0.22 71.96, 0 32 M0 32 C-1.87 11.18, 9.47 0.92, 32 0 M0 32 C-0.61 10.84, 10.34 -1.7, 32 0" stroke="#000000" stroke-width="1" fill="none"></path></g><g transform="translate(456.697265625 162.464599609375) rotate(0 76.5 12.5)"><text x="0" y="18" font-family="Virgil, Segoe UI Emoji" font-size="20px" fill="#c92a2a" text-anchor="start" style="white-space: pre;" direction="ltr">parallel region 1</text></g><g transform="translate(249.306640625 10.374755859375) rotate(0 127 17)"><text x="0" y="24" font-family="Virgil, Segoe UI Emoji" font-size="26.57068062827225px" fill="#2b8a3e" text-anchor="start" style="white-space: pre;" direction="ltr">omp_set_nested(1);</text></g><g stroke-linecap="round" transform="translate(72.10546875 417.769775390625) rotate(0 12.947265625 69.0078125)"><path d="M6.47 0 M6.47 0 C10.6 -0.48, 13.42 -0.43, 19.42 0 M6.47 0 C8.76 -0.4, 12.77 -0.12, 19.42 0 M19.42 0 C22.69 0.58, 27.51 3.35, 25.89 6.47 M19.42 0 C22.95 -0.7, 27.81 2.39, 25.89 6.47 M25.89 6.47 C27.9 56.56, 24.91 105.85, 25.89 131.54 M25.89 6.47 C27.26 46.97, 26.19 85.95, 25.89 131.54 M25.89 131.54 C24.98 136.22, 22 139.54, 19.42 138.02 M25.89 131.54 C26.32 134.81, 24.37 139.95, 19.42 138.02 M19.42 138.02 C15.91 138.87, 10.13 137.57, 6.47 138.02 M19.42 138.02 C16.02 138.73, 14.07 138.3, 6.47 138.02 M6.47 138.02 C4.09 138.08, -1.74 136.74, 0 131.54 M6.47 138.02 C2.47 136.22, 2.12 135.56, 0 131.54 M0 131.54 C0.02 94.38, 1.86 57.47, 0 6.47 M0 131.54 C-0.14 103.6, 1.32 74.86, 0 6.47 M0 6.47 C0.82 2.27, 1.05 -0.15, 6.47 0 M0 6.47 C2.27 2.7, 2.11 -2.2, 6.47 0" stroke="#000000" stroke-width="1" fill="none"></path></g><g transform="translate(50.5625 389.199462890625) rotate(0 36 12.5)"><text x="0" y="18" font-family="Virgil, Segoe UI Emoji" font-size="20px" fill="#000000" text-anchor="start" style="white-space: pre;" direction="ltr">thread1</text></g><g stroke-linecap="round" transform="translate(168.1015625 416.847412109375) rotate(0 12.947265625 69.0078125)"><path d="M6.47 0 M6.47 0 C11.13 -0.35, 13.85 0.99, 19.42 0 M6.47 0 C11.04 -0.04, 13.99 0.27, 19.42 0 M19.42 0 C25.35 1.2, 25.21 1.55, 25.89 6.47 M19.42 0 C25.65 0.23, 27.98 2.71, 25.89 6.47 M25.89 6.47 C25.68 43.66, 27.39 78.26, 25.89 131.54 M25.89 6.47 C26.93 34.46, 26.61 64.32, 25.89 131.54 M25.89 131.54 C24.16 137.38, 24.11 137.1, 19.42 138.02 M25.89 131.54 C26.53 137.79, 25.12 135.77, 19.42 138.02 M19.42 138.02 C16.05 137.71, 11.6 138.88, 6.47 138.02 M19.42 138.02 C14.91 138.33, 10.28 138.16, 6.47 138.02 M6.47 138.02 C0.42 138.9, 0.27 134.3, 0 131.54 M6.47 138.02 C4.28 137.72, -0.12 136.03, 0 131.54 M0 131.54 C1.88 83.59, -1.5 35.3, 0 6.47 M0 131.54 C1.65 105.57, 1.38 78.67, 0 6.47 M0 6.47 C-1.11 2.01, 4.13 0.47, 6.47 0 M0 6.47 C-0.05 -0.04, 3.9 1.64, 6.47 0" stroke="#000000" stroke-width="1" fill="none"></path></g><g transform="translate(146.55859375 388.277099609375) rotate(0 40.5 12.5)"><text x="0" y="18" font-family="Virgil, Segoe UI Emoji" font-size="20px" fill="#000000" text-anchor="start" style="white-space: pre;" direction="ltr">thread2</text></g><g stroke-linecap="round" transform="translate(10 372.749755859375) rotate(0 187.85351562500006 101.12890625)"><path d="M32 0 M32 0 C113.6 1.73, 197.57 -0.52, 343.71 0 M32 0 C106.2 0.62, 181.73 0.83, 343.71 0 M343.71 0 C364.36 -0.61, 377.37 10.86, 375.71 32 M343.71 0 C367.13 0.55, 375.34 12.63, 375.71 32 M375.71 32 C375.24 82.6, 373.43 133.7, 375.71 170.26 M375.71 32 C375.06 78.21, 374.65 124.82, 375.71 170.26 M375.71 170.26 C376.08 190.68, 365.59 203.94, 343.71 202.26 M375.71 170.26 C377.09 189.35, 364.18 204.3, 343.71 202.26 M343.71 202.26 C227.22 202.42, 114.08 200.39, 32 202.26 M343.71 202.26 C221.37 202.93, 97.04 203.22, 32 202.26 M32 202.26 C10.94 200.7, 1.84 191.33, 0 170.26 M32 202.26 C10.55 202.43, 1.86 191.73, 0 170.26 M0 170.26 C-2.78 129.78, -3.12 89.79, 0 32 M0 170.26 C-0.54 119.86, -1.5 69.28, 0 32 M0 32 C1.97 11.14, 10.62 -1.92, 32 0 M0 32 C1.74 12.3, 12.2 0.65, 32 0" stroke="#000000" stroke-width="1" fill="none"></path></g><g transform="translate(214.51171875 465.816162109375) rotate(0 80.5 12.5)"><text x="0" y="18" font-family="Virgil, Segoe UI Emoji" font-size="20px" fill="#c92a2a" text-anchor="start" style="white-space: pre;" direction="ltr">parallel region 2</text></g><g stroke-linecap="round" transform="translate(517.66015625 413.312744140625) rotate(0 12.947265625 69.0078125)"><path d="M6.47 0 M6.47 0 C11.7 -1.33, 15.45 0.12, 19.42 0 M6.47 0 C11.52 -0.08, 16.09 -0.56, 19.42 0 M19.42 0 C24.19 -0.7, 24.51 3.08, 25.89 6.47 M19.42 0 C22.19 1.8, 26.42 0.03, 25.89 6.47 M25.89 6.47 C27.09 47.74, 25.5 87.18, 25.89 131.54 M25.89 6.47 C25.22 52.76, 25 99.55, 25.89 131.54 M25.89 131.54 C25.71 136.27, 22.17 138.28, 19.42 138.02 M25.89 131.54 C24.01 136.8, 22.97 138, 19.42 138.02 M19.42 138.02 C12.98 137.56, 8.2 136.82, 6.47 138.02 M19.42 138.02 C15.21 137.73, 12.48 138.37, 6.47 138.02 M6.47 138.02 C3.38 139.84, -0.07 136.34, 0 131.54 M6.47 138.02 C1.77 136.68, -1.4 137.11, 0 131.54 M0 131.54 C0.26 90.41, -1.24 45.76, 0 6.47 M0 131.54 C1.71 105.25, 1.61 79.02, 0 6.47 M0 6.47 C-1.71 3.67, 1.3 -1.01, 6.47 0 M0 6.47 C-0.82 0.15, 0.35 -1.14, 6.47 0" stroke="#000000" stroke-width="1" fill="none"></path></g><g transform="translate(496.1171875 384.742431640625) rotate(0 36 12.5)"><text x="0" y="18" font-family="Virgil, Segoe UI Emoji" font-size="20px" fill="#000000" text-anchor="start" style="white-space: pre;" direction="ltr">thread1</text></g><g stroke-linecap="round" transform="translate(613.65625 412.390380859375) rotate(0 12.947265625 69.0078125)"><path d="M6.47 0 M6.47 0 C11.3 0.32, 16.55 0.03, 19.42 0 M6.47 0 C11.34 -0.47, 16.24 -0.23, 19.42 0 M19.42 0 C22.35 0.93, 24.55 3.73, 25.89 6.47 M19.42 0 C24.26 -2.13, 26.46 4.02, 25.89 6.47 M25.89 6.47 C24.61 47.14, 27.38 88.3, 25.89 131.54 M25.89 6.47 C24.9 45.14, 25.37 82.19, 25.89 131.54 M25.89 131.54 C24.32 136.12, 22.09 138.83, 19.42 138.02 M25.89 131.54 C25.13 135.84, 25.99 139.71, 19.42 138.02 M19.42 138.02 C14.36 136.74, 10.95 138.28, 6.47 138.02 M19.42 138.02 C15.54 138.26, 11.06 138.54, 6.47 138.02 M6.47 138.02 C2.09 138.5, -0.34 134.7, 0 131.54 M6.47 138.02 C0.76 139.26, 0.85 136.92, 0 131.54 M0 131.54 C-1.18 99.73, -2.32 69.59, 0 6.47 M0 131.54 C-0.32 83.2, -1.97 35.45, 0 6.47 M0 6.47 C-0.85 1.15, 1.44 -1.74, 6.47 0 M0 6.47 C-1.81 1.02, 4.06 -2.05, 6.47 0" stroke="#000000" stroke-width="1" fill="none"></path></g><g transform="translate(592.11328125 383.820068359375) rotate(0 40.5 12.5)"><text x="0" y="18" font-family="Virgil, Segoe UI Emoji" font-size="20px" fill="#000000" text-anchor="start" style="white-space: pre;" direction="ltr">thread2</text></g><g stroke-linecap="round" transform="translate(455.5546875 368.292724609375) rotate(0 187.853515625 101.12890625)"><path d="M32 0 M32 0 C96.11 -0.44, 159.25 0.25, 343.71 0 M32 0 C126.32 1.37, 219.83 1.95, 343.71 0 M343.71 0 C363.7 1.57, 376.17 8.82, 375.71 32 M343.71 0 C365.61 1.86, 376.38 10.88, 375.71 32 M375.71 32 C376.11 77.5, 374.77 123.38, 375.71 170.26 M375.71 32 C374.83 76.55, 374.14 120.82, 375.71 170.26 M375.71 170.26 C374.06 192.41, 364.38 202.24, 343.71 202.26 M375.71 170.26 C377.96 193.28, 365.52 199.97, 343.71 202.26 M343.71 202.26 C261.71 200.5, 180.61 199.07, 32 202.26 M343.71 202.26 C266.74 203.96, 188.87 203.48, 32 202.26 M32 202.26 C10.33 201.1, -1.22 192.68, 0 170.26 M32 202.26 C11.52 203.32, -1.32 192.55, 0 170.26 M0 170.26 C-1.34 120.43, 2.2 74.98, 0 32 M0 170.26 C-1.96 129.35, -1.53 86.41, 0 32 M0 32 C-0.72 8.92, 9.09 -0.99, 32 0 M0 32 C1.9 8.62, 10.82 1.57, 32 0" stroke="#000000" stroke-width="1" fill="none"></path></g><g transform="translate(660.69921875 461.675537109375) rotate(0 80.5 12.5)"><text x="0" y="18" font-family="Virgil, Segoe UI Emoji" font-size="20px" fill="#c92a2a" text-anchor="start" style="white-space: pre;" direction="ltr">parallel region 3</text></g><g mask="url(#mask-29W6Ms36zGktHmBZ5P3EP)" stroke-linecap="round"><g transform="translate(317.322265625 250.882568359375) rotate(0 -72.39304037192369 60.26388831126508)"><path d="M1.06 -0.1 C-23.14 19.97, -120.8 100.36, -145.44 120.52 M0.15 -1.2 C-24.08 19.02, -121.19 101.2, -145.84 121.73" stroke="#000000" stroke-width="1" fill="none"></path></g><g transform="translate(317.322265625 250.882568359375) rotate(0 -72.39304037192369 60.26388831126508)"><path d="M-131.03 97.49 C-136 102.46, -139.64 109.96, -144.24 121.74 M-131.8 95.63 C-135.26 104.88, -140.52 112.43, -145.67 120.97" stroke="#000000" stroke-width="1" fill="none"></path></g><g transform="translate(317.322265625 250.882568359375) rotate(0 -72.39304037192369 60.26388831126508)"><path d="M-117.83 113.2 C-126.45 113.95, -133.72 117.13, -144.24 121.74 M-118.6 111.34 C-126.6 115.29, -136.33 117.53, -145.67 120.97" stroke="#000000" stroke-width="1" fill="none"></path></g></g><mask id="mask-29W6Ms36zGktHmBZ5P3EP"><rect x="0" y="0" fill="#fff" width="563.814453125" height="472.011474609375"></rect><rect x="149.076171875" y="298.947021484375" fill="#000" width="190" height="25" opacity="1"></rect></mask><g transform="translate(149.076171875 298.947021484375) rotate(0 95.85305337807631 12.199435186265077)"><text x="95" y="18" font-family="Virgil, Segoe UI Emoji" font-size="20px" fill="#862e9c" text-anchor="middle" style="white-space: pre;" direction="ltr">inner parallel region</text></g><g mask="url(#mask-VIhqliirgCixdN4VbV2Ow)" stroke-linecap="round"><g transform="translate(435.716796875 251.738037109375) rotate(0 58.36151827829423 58.39860390102024)"><path d="M0.99 -0.59 C20.53 18.84, 97.41 96.8, 116.68 116.25 M0.05 1.71 C19.5 21.32, 96.49 98.19, 115.79 117.39" stroke="#000000" stroke-width="1" fill="none"></path></g><g transform="translate(435.716796875 251.738037109375) rotate(0 58.36151827829423 58.39860390102024)"><path d="M87.59 104.95 C94.09 107.74, 100.64 109.06, 116.95 117.43 M87.77 105.45 C95.7 107.83, 105.43 112.71, 115.15 118.14" stroke="#000000" stroke-width="1" fill="none"></path></g><g transform="translate(435.716796875 251.738037109375) rotate(0 58.36151827829423 58.39860390102024)"><path d="M102.08 90.42 C104.92 96.95, 107.84 101.91, 116.95 117.43 M102.26 90.91 C105.89 97.72, 111.32 106.91, 115.15 118.14" stroke="#000000" stroke-width="1" fill="none"></path></g></g><mask id="mask-VIhqliirgCixdN4VbV2Ow"><rect x="0" y="0" fill="#fff" width="652.275390625" height="468.734130859375"></rect><rect x="398.99609375" y="297.736083984375" fill="#000" width="190" height="25" opacity="1"></rect></mask><g transform="translate(398.99609375 297.736083984375) rotate(0 95.08222140329423 12.400557026020238)"><text x="95" y="18" font-family="Virgil, Segoe UI Emoji" font-size="20px" fill="#862e9c" text-anchor="middle" style="white-space: pre;" direction="ltr">inner parallel region</text></g><g transform="translate(607.166015625 10) rotate(0 131 17)"><text x="0" y="24" font-family="Virgil, Segoe UI Emoji" font-size="26.64871419270836px" fill="#c92a2a" text-anchor="start" style="white-space: pre;" direction="ltr">This is important !!!</text></g><g stroke-linecap="round"><g transform="translate(602.349609375 26.8125) rotate(0 -46.72015676179433 -1.5432204501191222)"><path d="M0.79 1.19 C-14.73 0.98, -77.89 -1.72, -93.78 -2.27 M-0.25 0.77 C-15.8 0.27, -78.41 -3.43, -94.23 -4.28" stroke="#c92a2a" stroke-width="1" fill="none"></path></g><g transform="translate(602.349609375 26.8125) rotate(0 -46.72015676179433 -1.5432204501191222)"><path d="M-63.52 -11.37 C-72.33 -10.26, -79.23 -6.92, -92.38 -4.68 M-65.46 -12.07 C-73.97 -10.01, -84.01 -7.66, -93.33 -4.73" stroke="#c92a2a" stroke-width="1" fill="none"></path></g><g transform="translate(602.349609375 26.8125) rotate(0 -46.72015676179433 -1.5432204501191222)"><path d="M-64.68 9.12 C-73.02 5.15, -79.64 3.42, -92.38 -4.68 M-66.62 8.42 C-74.62 4.03, -84.3 -0.06, -93.33 -4.73" stroke="#c92a2a" stroke-width="1" fill="none"></path></g></g><mask></mask></svg>